<?xml version="1.0" standalone="no"?>
<!DOCTYPE svg PUBLIC "-//W3C//DTD SVG 20010904//EN"
 "http://www.w3.org/TR/2001/REC-SVG-20010904/DTD/svg10.dtd">
<svg version="1.0" xmlns="http://www.w3.org/2000/svg"
 width="1024.000000pt" height="1024.000000pt" viewBox="0 0 1024.000000 1024.000000"
 preserveAspectRatio="xMidYMid meet">

<g transform="translate(0.000000,1024.000000) scale(0.100000,-0.100000)"
fill="#000000" stroke="none">
<path d="M2340 6630 l0 -140 -275 0 -275 0 -1 -42 c-1 -24 -2 -71 -3 -105 l-1
-63 -167 0 -168 0 0 -115 0 -115 -125 0 -125 0 0 -145 0 -145 -125 0 -125 0 0
-485 0 -485 23 -1 c12 0 59 0 104 0 45 0 91 -3 103 -6 20 -5 20 -9 20 -594 l0
-588 133 -3 c72 -2 176 -2 230 0 l97 3 0 254 0 255 23 2 c12 1 31 3 42 4 11 1
28 2 38 3 15 1 17 13 17 110 0 90 3 110 16 115 9 3 76 6 150 6 l134 0 0 105 0
105 125 0 125 0 1 38 c0 20 2 51 3 67 1 17 3 46 4 66 l2 36 130 5 c72 3 132 7
134 9 2 2 6 79 8 171 l3 168 50 1 c28 1 77 2 110 3 l60 1 3 823 2 822 -250 0
-250 0 0 -140z m266 -262 c-3 -73 -6 -383 -6 -688 l-1 -555 -89 0 c-75 0 -89
3 -85 14 4 11 1 10 -13 -2 -10 -9 -33 -17 -50 -17 l-32 0 0 -70 c0 -59 -3 -70
-17 -70 -13 0 -14 3 -5 12 17 17 15 33 -3 18 -21 -18 -19 -40 5 -40 17 0 19
-7 19 -60 l-1 -60 -42 -1 c-22 -1 -68 -3 -101 -4 -33 -2 -72 -4 -86 -4 l-26
-1 1 -130 c1 -124 0 -130 -19 -131 -11 -1 -63 -3 -115 -4 -52 -2 -110 -3 -127
-4 l-33 -1 0 -105 0 -105 -68 0 c-41 0 -73 5 -81 13 -9 7 -12 8 -7 0 4 -8 -12
-11 -59 -10 -50 1 -65 5 -66 17 -3 31 1 453 4 456 1 2 60 4 130 5 71 0 137 4
148 6 18 5 19 17 19 298 l0 292 132 2 c73 1 134 3 135 5 1 1 3 70 4 154 l1
152 134 0 134 0 0 149 0 150 -130 0 -130 1 -1 -133 c-1 -72 -1 -138 0 -145 2
-11 -25 -13 -131 -12 -73 1 -139 2 -146 1 -10 -1 -13 -34 -12 -148 1 -82 1
-154 0 -160 0 -10 -37 -13 -150 -13 l-150 0 0 -295 0 -295 -57 -2 c-50 -1
-144 0 -193 2 -10 0 -11 3 -4 8 9 5 8 11 -2 20 -12 11 -14 9 -14 -13 0 -14 -4
-24 -9 -21 -5 3 -8 207 -7 457 l1 451 118 -1 c107 -2 117 0 117 16 1 10 2 73
4 141 2 67 5 124 7 126 2 2 78 6 168 9 90 4 165 8 167 10 2 1 4 52 6 111 l3
109 270 2 270 3 1 34 c1 18 2 65 3 105 l1 72 118 4 c64 1 125 4 135 5 16 2 17
-7 13 -130z m-1126 -2249 l0 -231 -52 6 c-29 3 -61 6 -70 6 -17 0 -18 17 -18
225 l0 225 70 0 70 0 0 -231z"/>
<path d="M2568 5383 c7 -3 16 -2 19 1 4 3 -2 6 -13 5 -11 0 -14 -3 -6 -6z"/>
<path d="M2480 5349 c0 -5 5 -7 10 -4 6 3 10 8 10 11 0 2 -4 4 -10 4 -5 0 -10
-5 -10 -11z"/>
<path d="M2566 5333 c1 -16 3 -31 3 -35 1 -5 6 -8 12 -8 6 0 7 5 2 13 -4 6 -6
22 -4 35 1 12 -1 22 -6 22 -5 0 -8 -12 -7 -27z"/>
<path d="M2250 5330 c-6 -11 -8 -20 -6 -20 3 0 10 9 16 20 6 11 8 20 6 20 -3
0 -10 -9 -16 -20z"/>
<path d="M2510 5340 c0 -5 4 -10 9 -10 11 0 9 -43 -4 -53 -6 -5 -2 -6 8 -3 14
5 17 2 12 -13 -3 -10 1 -24 10 -31 11 -9 15 -9 15 -1 0 7 5 9 12 5 7 -4 8 -3
4 4 -4 6 -13 9 -21 5 -18 -6 -20 8 -3 25 9 9 9 12 -1 12 -7 0 -11 6 -8 14 3 8
1 17 -6 20 -8 3 -8 5 1 5 10 1 10 4 -2 16 -17 17 -26 19 -26 5z"/>
<path d="M2438 5333 c7 -3 16 -2 19 1 4 3 -2 6 -13 5 -11 0 -14 -3 -6 -6z"/>
<path d="M2466 5315 c-3 -8 -1 -15 3 -15 5 0 11 7 15 15 3 8 1 15 -3 15 -5 0
-11 -7 -15 -15z"/>
<path d="M2280 5312 c0 -6 -7 -18 -16 -26 -13 -14 -13 -16 -1 -16 14 0 31 39
22 49 -3 2 -5 -1 -5 -7z"/>
<path d="M2380 5300 c0 -5 5 -10 11 -10 5 0 7 5 4 10 -3 6 -8 10 -11 10 -2 0
-4 -4 -4 -10z"/>
<path d="M2185 5280 c-16 -7 -17 -9 -3 -9 9 -1 20 4 23 9 7 11 7 11 -20 0z"/>
<path d="M2420 5260 c0 -5 5 -10 11 -10 5 0 7 5 4 10 -3 6 -8 10 -11 10 -2 0
-4 -4 -4 -10z"/>
<path d="M2482 5265 c4 -4 0 -14 -10 -21 -9 -7 -12 -14 -6 -14 6 0 17 6 23 14
9 11 9 16 -1 22 -7 4 -10 4 -6 -1z"/>
<path d="M2236 5241 c-3 -4 6 -6 19 -3 14 2 25 6 25 8 0 8 -39 4 -44 -5z"/>
<path d="M2320 5226 c7 -7 14 -6 21 1 9 9 7 12 -9 10 -14 -1 -18 -5 -12 -11z"/>
<path d="M2405 5230 c-2 -3 5 -6 15 -7 11 -1 22 2 24 5 3 4 -4 8 -15 8 -11 0
-22 -3 -24 -6z"/>
<path d="M2381 5204 c0 -11 3 -14 6 -6 3 7 2 16 -1 19 -3 4 -6 -2 -5 -13z"/>
<path d="M2528 5215 c-3 -6 0 -16 8 -22 8 -9 15 -9 19 -2 5 6 12 6 23 -3 15
-12 16 -11 3 5 -8 10 -20 16 -27 13 -7 -3 -14 0 -17 7 -2 6 -6 7 -9 2z"/>
<path d="M2404 5199 c-2 -4 4 -13 13 -20 12 -10 14 -10 9 -1 -4 7 -2 12 8 12
8 0 20 -8 25 -17 6 -10 11 -13 11 -6 0 6 -5 15 -10 18 -6 4 -8 10 -6 14 3 4
-7 7 -20 7 -14 0 -27 -3 -30 -7z"/>
<path d="M2470 5202 c0 -5 7 -9 15 -9 8 0 12 4 9 9 -3 4 -9 8 -15 8 -5 0 -9
-4 -9 -8z"/>
<path d="M2221 5184 c0 -11 3 -14 6 -6 3 7 2 16 -1 19 -3 4 -6 -2 -5 -13z"/>
<path d="M2511 5174 c0 -11 3 -14 6 -6 3 7 2 16 -1 19 -3 4 -6 -2 -5 -13z"/>
<path d="M2377 5166 c-4 -10 -12 -14 -19 -10 -10 6 -11 4 0 -7 14 -15 37 1 30
22 -3 9 -6 7 -11 -5z"/>
<path d="M2484 5160 c0 -11 6 -20 12 -20 7 0 10 8 7 20 -3 11 -8 20 -12 20 -4
0 -7 -9 -7 -20z"/>
<path d="M2535 5159 c-3 -4 0 -11 6 -15 8 -4 9 -3 5 4 -4 7 -3 12 3 12 5 0 13
-4 16 -10 9 -14 22 -12 22 4 0 14 -44 19 -52 5z"/>
<path d="M1816 5107 c3 -10 9 -15 12 -12 3 3 0 11 -7 18 -10 9 -11 8 -5 -6z"/>
<path d="M2215 5110 c-3 -5 -1 -10 4 -10 6 0 11 5 11 10 0 6 -2 10 -4 10 -3 0
-8 -4 -11 -10z"/>
<path d="M1890 5090 c0 -5 5 -10 11 -10 5 0 7 5 4 10 -3 6 -8 10 -11 10 -2 0
-4 -4 -4 -10z"/>
<path d="M1350 5080 c-9 -6 -10 -10 -3 -10 6 0 15 5 18 10 8 12 4 12 -15 0z"/>
<path d="M2238 5063 c7 -3 16 -2 19 1 4 3 -2 6 -13 5 -11 0 -14 -3 -6 -6z"/>
<path d="M1266 5035 c-3 -9 -2 -13 4 -10 6 3 10 -1 10 -10 0 -9 5 -13 11 -9 6
3 15 1 19 -6 5 -7 8 -2 8 15 0 19 -3 23 -9 14 -8 -11 -12 -11 -23 4 -12 16
-14 16 -20 2z"/>
<path d="M2240 5040 c0 -5 5 -10 11 -10 5 0 7 5 4 10 -3 6 -8 10 -11 10 -2 0
-4 -4 -4 -10z"/>
<path d="M2280 5030 c0 -5 5 -10 11 -10 5 0 7 5 4 10 -3 6 -8 10 -11 10 -2 0
-4 -4 -4 -10z"/>
<path d="M2125 5020 c-3 -5 -1 -10 4 -10 6 0 11 5 11 10 0 6 -2 10 -4 10 -3 0
-8 -4 -11 -10z"/>
<path d="M2271 4994 c0 -11 3 -14 6 -6 3 7 2 16 -1 19 -3 4 -6 -2 -5 -13z"/>
<path d="M1220 4975 c-9 -11 -9 -15 -1 -15 7 0 9 -5 5 -12 -4 -7 -3 -10 1 -5
8 6 16 47 10 47 -2 0 -8 -7 -15 -15z"/>
<path d="M1380 4980 c-9 -6 -10 -10 -3 -10 6 0 15 5 18 10 8 12 4 12 -15 0z"/>
<path d="M1253 4955 c0 -8 4 -15 9 -15 4 0 8 7 8 15 0 8 -4 15 -8 15 -5 0 -9
-7 -9 -15z"/>
<path d="M1330 4960 c0 -5 5 -10 10 -10 6 0 10 5 10 10 0 6 -4 10 -10 10 -5 0
-10 -4 -10 -10z"/>
<path d="M2045 4960 c-3 -5 -1 -10 4 -10 6 0 11 5 11 10 0 6 -2 10 -4 10 -3 0
-8 -4 -11 -10z"/>
<path d="M2165 4940 c-3 -5 -1 -10 4 -10 6 0 11 5 11 10 0 6 -2 10 -4 10 -3 0
-8 -4 -11 -10z"/>
<path d="M2228 4943 c7 -3 16 -2 19 1 4 3 -2 6 -13 5 -11 0 -14 -3 -6 -6z"/>
<path d="M2280 4940 c0 -5 9 -8 20 -7 21 1 18 10 -5 13 -8 1 -15 -2 -15 -6z"/>
<path d="M1220 4920 c0 -5 7 -7 15 -4 8 4 15 8 15 10 0 2 -7 4 -15 4 -8 0 -15
-4 -15 -10z"/>
<path d="M2040 4910 c0 -6 7 -10 15 -10 8 0 15 2 15 4 0 2 -7 6 -15 10 -8 3
-15 1 -15 -4z"/>
<path d="M2086 4908 c3 -4 9 -8 15 -8 5 0 9 4 9 8 0 5 -7 9 -15 9 -8 0 -12 -4
-9 -9z"/>
<path d="M2268 4901 c-16 -19 -16 -20 3 -26 11 -4 23 -4 26 -1 4 3 -1 6 -11 6
-14 0 -15 4 -6 20 14 25 9 25 -12 1z"/>
<path d="M1245 4900 c-3 -5 -1 -10 4 -10 6 0 11 5 11 10 0 6 -2 10 -4 10 -3 0
-8 -4 -11 -10z"/>
<path d="M1315 4900 c3 -5 8 -10 11 -10 2 0 4 5 4 10 0 6 -5 10 -11 10 -5 0
-7 -4 -4 -10z"/>
<path d="M1433 4898 c3 -9 2 -19 -3 -24 -5 -5 3 -10 18 -10 15 -1 21 1 15 3
-7 3 -13 11 -13 18 0 8 -5 17 -12 21 -7 5 -9 2 -5 -8z"/>
<path d="M2175 4900 c3 -5 8 -10 11 -10 2 0 4 5 4 10 0 6 -5 10 -11 10 -5 0
-7 -4 -4 -10z"/>
<path d="M2295 4900 c-3 -5 -1 -10 4 -10 6 0 11 5 11 10 0 6 -2 10 -4 10 -3 0
-8 -4 -11 -10z"/>
<path d="M1867 4878 c3 -13 6 -31 6 -40 1 -12 5 -14 14 -6 10 8 9 13 -4 26
-10 11 -12 17 -4 20 12 4 5 22 -9 22 -5 0 -6 -10 -3 -22z"/>
<path d="M1350 4873 c0 -7 6 -13 13 -13 8 0 14 6 14 13 0 8 -6 14 -14 14 -7 0
-13 -6 -13 -14z"/>
<path d="M2200 4870 c0 -5 5 -10 11 -10 5 0 7 5 4 10 -3 6 -8 10 -11 10 -2 0
-4 -4 -4 -10z"/>
<path d="M1268 4863 c6 -2 18 -2 25 0 6 3 1 5 -13 5 -14 0 -19 -2 -12 -5z"/>
<path d="M1830 4866 c0 -2 7 -7 16 -10 8 -3 12 -2 9 4 -6 10 -25 14 -25 6z"/>
<path d="M2035 4840 c-3 -6 1 -7 9 -4 18 7 21 14 7 14 -6 0 -13 -4 -16 -10z"/>
<path d="M1840 4830 c-9 -6 -10 -10 -3 -10 6 0 15 5 18 10 8 12 4 12 -15 0z"/>
<path d="M1554 4811 c0 -11 2 -18 5 -16 2 3 10 0 18 -7 11 -9 18 -8 31 5 9 10
11 17 5 17 -7 0 -15 -5 -19 -11 -5 -8 -12 -4 -23 10 -16 21 -17 21 -17 2z"/>
<path d="M1655 4820 c-7 -12 2 -12 30 0 19 8 19 9 -2 9 -12 1 -25 -3 -28 -9z"/>
<path d="M1713 4823 c4 -3 1 -13 -6 -22 -11 -14 -10 -14 6 -2 20 15 22 31 5
31 -6 0 -8 -3 -5 -7z"/>
<path d="M1740 4800 c-9 -6 -10 -10 -3 -10 6 0 15 5 18 10 8 12 4 12 -15 0z"/>
<path d="M1770 4801 c0 -5 7 -11 14 -14 10 -4 13 -1 9 9 -6 15 -23 19 -23 5z"/>
<path d="M1887 4799 c7 -7 15 -10 18 -7 3 3 -2 9 -12 12 -14 6 -15 5 -6 -5z"/>
<path d="M1660 4783 c8 -3 21 -12 27 -21 7 -9 15 -13 18 -10 9 9 -25 38 -43
37 -14 0 -14 -2 -2 -6z"/>
<path d="M1715 4770 c3 -5 8 -10 11 -10 2 0 4 5 4 10 0 6 -5 10 -11 10 -5 0
-7 -4 -4 -10z"/>
<path d="M1515 4749 c-4 -6 -5 -12 -2 -15 2 -3 7 2 10 11 7 17 1 20 -8 4z"/>
<path d="M1540 4746 c0 -8 -7 -22 -17 -31 -14 -14 -14 -18 -2 -26 10 -6 10 -9
2 -9 -7 0 -13 -5 -13 -11 0 -8 4 -8 14 1 8 6 12 19 9 27 -5 12 -2 15 8 11 12
-5 14 1 11 23 -4 30 -12 39 -12 15z"/>
<path d="M1590 4749 c0 -5 5 -7 12 -3 8 5 9 2 5 -9 -3 -10 -2 -17 2 -17 16 0
20 28 5 34 -21 8 -24 8 -24 -5z"/>
<path d="M1778 4739 c-22 -23 -38 -25 -38 -3 0 13 -3 14 -13 5 -8 -6 -17 -8
-20 -4 -4 3 -7 1 -7 -5 0 -7 9 -12 20 -12 18 0 25 -10 21 -32 0 -4 7 -4 16 -1
11 4 13 8 5 11 -18 6 -4 22 19 22 12 0 19 7 19 20 0 24 0 24 -22 -1z"/>
<path d="M1680 4695 c0 -8 4 -15 8 -15 5 0 9 7 9 15 0 8 -4 15 -9 15 -4 0 -8
-7 -8 -15z"/>
<path d="M1801 4701 c-8 -5 -9 -11 -3 -15 5 -3 12 1 16 9 6 17 6 18 -13 6z"/>
<path d="M1614 4681 c7 -10 31 -9 42 2 4 4 -5 7 -20 7 -15 0 -25 -4 -22 -9z"/>
<path d="M1706 4673 c-6 -14 -5 -15 5 -6 7 7 10 15 7 18 -3 3 -9 -2 -12 -12z"/>
<path d="M1750 4665 c-8 -9 -8 -15 -2 -15 12 0 26 19 19 26 -2 2 -10 -2 -17
-11z"/>
<path d="M1635 4660 c-16 -4 -25 -8 -18 -9 7 0 10 -8 7 -16 -4 -10 -15 -13
-33 -10 -20 4 -22 3 -6 -3 19 -9 19 -9 0 -20 -18 -10 -18 -11 -2 -12 9 0 17 5
17 11 0 5 4 8 9 5 4 -3 13 6 19 19 10 23 23 30 45 26 4 0 7 4 7 9 0 11 -2 11
-45 0z"/>
<path d="M1535 4650 c-11 -5 -17 -9 -13 -9 3 -1 13 -4 21 -7 8 -3 17 2 20 10
7 18 2 19 -28 6z"/>
<path d="M1870 4640 c0 -5 5 -10 11 -10 5 0 7 5 4 10 -3 6 -8 10 -11 10 -2 0
-4 -4 -4 -10z"/>
<path d="M1676 4623 c-6 -14 -5 -15 5 -6 7 7 10 15 7 18 -3 3 -9 -2 -12 -12z"/>
<path d="M1747 4633 c-4 -3 -7 -11 -7 -17 0 -6 5 -5 12 2 6 6 9 14 7 17 -3 3
-9 2 -12 -2z"/>
<path d="M1814 4620 c0 -13 4 -16 10 -10 7 7 7 13 0 20 -6 6 -10 3 -10 -10z"/>
<path d="M1911 4612 c-8 -15 -5 -18 15 -20 15 -1 23 2 19 8 -4 6 -11 7 -17 4
-7 -5 -9 -1 -5 9 8 23 0 22 -12 -1z"/>
<path d="M1634 4601 c3 -5 16 -11 28 -14 22 -6 22 -5 4 8 -22 17 -40 20 -32 6z"/>
<path d="M1705 4590 c3 -5 8 -10 11 -10 2 0 4 5 4 10 0 6 -5 10 -11 10 -5 0
-7 -4 -4 -10z"/>
<path d="M1620 4560 c-9 -6 -10 -10 -3 -10 6 0 15 5 18 10 8 12 4 12 -15 0z"/>
<path d="M1560 4533 c0 -15 -2 -16 -10 -3 -8 13 -10 12 -10 -2 0 -24 12 -23
33 2 14 17 14 20 2 20 -8 0 -15 -8 -15 -17z"/>
<path d="M1650 4546 c0 -2 7 -7 16 -10 8 -3 12 -2 9 4 -6 10 -25 14 -25 6z"/>
<path d="M1709 4473 c-13 -16 -12 -17 4 -4 16 13 21 21 13 21 -2 0 -10 -8 -17
-17z"/>
<path d="M1510 4439 c0 -9 11 -21 23 -26 19 -9 24 -8 24 3 0 7 -4 11 -9 8 -5
-4 -16 2 -23 12 -12 16 -14 16 -15 3z"/>
<path d="M1632 4434 c-7 -8 -8 -14 -3 -14 10 0 25 19 20 25 -2 1 -10 -3 -17
-11z"/>
<path d="M1646 4404 c-17 -12 -17 -14 -4 -14 9 0 20 5 23 11 11 17 2 18 -19 3z"/>
<path d="M1586 4401 c-4 -5 3 -7 14 -4 23 6 26 13 6 13 -8 0 -17 -4 -20 -9z"/>
<path d="M1365 4321 c-6 -11 13 -26 22 -17 4 3 1 6 -6 6 -7 0 -9 5 -6 10 3 6
4 10 1 10 -3 0 -7 -4 -11 -9z"/>
<path d="M1421 4303 c-1 -6 -4 -20 -7 -30 -5 -17 -5 -17 6 0 6 10 9 23 6 30
-3 9 -5 9 -5 0z"/>
<path d="M1448 4223 c7 -3 16 -2 19 1 4 3 -2 6 -13 5 -11 0 -14 -3 -6 -6z"/>
<path d="M1355 4209 c-4 -6 -5 -12 -2 -15 2 -3 7 2 10 11 7 17 1 20 -8 4z"/>
<path d="M1382 4185 c-1 -13 3 -27 8 -30 6 -3 10 -14 10 -23 0 -13 -2 -14 -9
-4 -6 10 -10 10 -21 -3 -11 -13 -9 -15 11 -12 15 3 25 13 30 30 5 20 4 24 -8
20 -12 -5 -14 -1 -9 15 4 11 3 23 -1 25 -5 3 -10 -5 -11 -18z"/>
<path d="M1355 4160 c3 -5 8 -10 11 -10 2 0 4 5 4 10 0 6 -5 10 -11 10 -5 0
-7 -4 -4 -10z"/>
<path d="M1420 4136 c0 -7 40 -14 44 -7 3 4 -6 8 -20 9 -13 1 -24 0 -24 -2z"/>
<path d="M1407 4103 c-4 -3 -7 -11 -7 -17 0 -6 5 -5 12 2 6 6 9 14 7 17 -3 3
-9 2 -12 -2z"/>
<path d="M1368 4093 c7 -3 16 -2 19 1 4 3 -2 6 -13 5 -11 0 -14 -3 -6 -6z"/>
<path d="M1361 4066 c-8 -10 -9 -16 -1 -21 6 -4 10 -3 9 2 -4 24 3 23 26 -1
29 -31 34 -20 6 12 -22 26 -25 26 -40 8z"/>
<path d="M1453 4055 c-3 -9 -3 -18 -1 -21 3 -3 8 4 11 16 6 23 -1 27 -10 5z"/>
<path d="M1383 4033 c-18 -7 -16 -20 2 -20 8 0 15 6 15 14 0 7 -1 13 -2 12 -2
0 -9 -3 -15 -6z"/>
<path d="M1361 3993 c7 -12 15 -20 18 -17 3 2 -3 12 -13 22 -17 16 -18 16 -5
-5z"/>
<path d="M1406 4002 c-2 -4 -1 -14 3 -21 6 -10 10 -9 14 3 6 16 -8 32 -17 18z"/>
<path d="M1450 3989 c0 -5 5 -7 10 -4 6 3 10 8 10 11 0 2 -4 4 -10 4 -5 0 -10
-5 -10 -11z"/>
<path d="M1415 3958 l-20 -21 23 12 c12 6 22 16 22 21 0 13 -2 12 -25 -12z"/>
<path d="M1385 3960 c-4 -6 -11 -8 -16 -5 -5 4 -9 -1 -9 -9 0 -22 13 -20 28 4
7 11 10 20 8 20 -3 0 -8 -5 -11 -10z"/>
<path d="M1400 3920 c0 -5 5 -10 11 -10 5 0 7 5 4 10 -3 6 -8 10 -11 10 -2 0
-4 -4 -4 -10z"/>
<path d="M3618 6482 l-178 -2 0 -100 0 -100 -90 0 -90 0 0 -195 0 -195 45 -1
c25 -1 50 -3 55 -4 6 -1 26 -3 45 -4 l35 -1 0 -105 0 -105 220 0 220 0 0 -115
0 -115 -315 0 -315 0 0 -145 0 -144 33 -6 c17 -3 187 -4 377 -3 l345 3 3 103
3 102 89 0 90 0 0 216 c0 191 -2 215 -15 210 -9 -3 -50 -3 -92 1 l-75 6 7 79
6 78 -68 1 c-37 1 -75 2 -83 3 -8 2 -79 3 -157 4 l-143 2 0 125 0 125 303 2
302 3 5 120 c3 66 4 130 2 142 -4 25 22 24 -564 15z"/>
<path d="M4380 5820 l0 -670 150 0 150 0 0 365 0 365 100 0 100 0 0 -125 c0
-93 3 -125 13 -126 6 0 56 -1 110 -2 l99 -2 1 125 2 125 93 3 92 3 0 -273 c0
-222 7 -446 14 -455 1 -1 66 -3 146 -4 l145 -2 0 669 0 669 -152 3 -153 3 0
-108 0 -108 -95 3 -95 3 0 -101 0 -101 -102 3 -103 3 3 98 4 97 -106 0 -106 0
0 99 0 98 -37 7 c-21 3 -91 6 -155 6 l-118 0 0 -670z"/>
<path d="M5950 6385 l0 -105 -86 0 -85 0 3 -462 c1 -255 4 -509 6 -566 l3
-103 147 3 147 3 1 65 c1 36 2 107 3 158 l1 92 200 0 200 0 2 -132 c1 -73 1
-148 1 -166 l-1 -33 150 2 150 1 -6 286 c-3 158 -6 414 -6 570 l0 282 -80 0
-80 0 0 105 0 105 -335 -1 -335 0 0 -104z m535 -398 l0 -209 -195 2 c-107 0
-197 3 -199 6 -8 8 -14 359 -7 388 l6 24 197 -1 198 -2 0 -208z"/>
<path d="M6970 5821 c0 -369 3 -671 8 -673 4 -2 71 -2 150 0 l143 4 -6 170
c-3 94 -3 199 0 234 l7 64 109 0 109 0 0 -96 0 -97 110 7 110 6 1 -58 c0 -31
1 -95 2 -142 l2 -85 135 -3 c197 -4 180 -19 180 151 l0 142 -62 -4 c-35 -1
-104 0 -155 4 l-93 7 0 84 0 84 70 0 70 0 0 75 0 75 85 0 85 0 -4 158 c-3 86
-5 201 -5 255 l-1 97 -74 0 -74 0 2 105 1 105 -452 0 -453 0 0 -669z m729 373
l31 -6 0 -149 0 -149 -102 -1 c-57 0 -159 -1 -228 -2 l-125 -2 -3 158 -3 157
199 0 c110 0 214 -3 231 -6z"/>
<path d="M8690 6480 l-515 -5 -3 -140 -3 -140 181 3 180 3 0 -525 0 -526 150
0 150 0 0 520 0 520 108 0 c59 0 148 2 197 4 l90 2 3 147 c2 115 0 146 -10
145 -7 -2 -245 -5 -528 -8z"/>
<path d="M3260 4211 l0 -721 171 0 172 0 -7 280 -6 280 255 0 256 0 -1 -197
c-1 -109 -1 -235 -1 -280 l1 -83 170 0 170 0 0 715 0 715 -176 0 -175 0 6
-265 7 -265 -256 0 -256 0 0 265 0 265 -52 0 c-29 1 -104 3 -165 6 l-113 6 0
-721z"/>
<path d="M5212 4923 l-324 -3 4 -105 3 -104 -105 -3 -105 -3 0 -605 0 -605
163 -3 162 -2 2 57 c4 152 5 213 7 278 l1 70 223 -1 c122 -1 228 -2 235 -3 9
-1 12 -48 12 -201 l0 -200 160 0 160 0 0 610 0 610 -95 0 -95 0 0 73 c0 39 -3
89 -6 110 -6 35 -8 37 -43 35 -20 -2 -182 -4 -359 -5z m269 -370 c1 -32 2
-119 3 -193 l1 -135 -230 0 -230 0 -1 160 c-1 88 1 175 3 193 l5 32 224 0 224
0 1 -57z"/>
<path d="M6491 4923 l-454 -3 6 -118 c4 -64 7 -386 7 -714 l0 -598 475 0 474
0 3 103 3 102 90 5 90 5 0 195 c0 272 6 252 -69 250 -33 -1 -73 -1 -88 -1
l-28 1 0 85 0 85 74 0 c41 0 81 3 90 6 14 5 16 33 16 205 l0 199 -90 0 -90 0
0 100 0 100 -27 -2 c-16 -2 -232 -4 -482 -5z m244 -302 l120 -1 3 -125 3 -125
-243 2 -243 3 -3 127 -3 128 123 -4 c68 -2 177 -4 243 -5z m105 -556 c18 -6
20 -16 20 -131 l0 -124 -242 0 -243 0 0 123 0 122 50 5 c80 8 394 12 415 5z"/>
<path d="M8017 4922 l-78 -3 3 -152 3 -152 228 -3 227 -2 0 -560 0 -560 165 2
166 3 2 555 2 555 245 5 245 5 -2 85 c-1 47 -3 118 -3 157 l0 72 -562 -2
c-310 -1 -598 -3 -641 -5z"/>
<path d="M7400 4205 l0 -715 171 0 172 0 -6 478 c-4 262 -7 584 -7 715 l0 237
-165 0 -165 0 0 -715z"/>
</g>
</svg>
