<?xml version="1.0" encoding="UTF-8" standalone="no"?><!DOCTYPE svg PUBLIC "-//W3C//DTD SVG 1.1//EN" "http://www.w3.org/Graphics/SVG/1.1/DTD/svg11.dtd"><svg width="100%" height="100%" viewBox="0 0 48 48" version="1.1" xmlns="http://www.w3.org/2000/svg" xmlns:xlink="http://www.w3.org/1999/xlink" xml:space="preserve" xmlns:serif="http://www.serif.com/" style="fill-rule:evenodd;clip-rule:evenodd;stroke-linejoin:round;stroke-miterlimit:2;"><rect x="29.76" y="2.4" width="2.4" height="2.4"/><rect x="32.16" y="28.8" width="2.4" height="2.4"/><rect x="29.76" y="31.2" width="2.4" height="2.4"/><rect x="27.36" y="33.6" width="2.4" height="2.4"/><rect x="24.96" y="36" width="2.4" height="2.4"/><rect x="22.56" y="38.4" width="2.4" height="2.4"/><rect x="20.16" y="40.8" width="2.4" height="2.4"/><rect x="17.76" y="43.2" width="2.4" height="2.4"/><rect x="27.36" y="4.8" width="2.4" height="2.4"/><rect x="24.96" y="7.2" width="2.4" height="2.4"/><rect x="22.56" y="9.6" width="2.4" height="2.4"/><rect x="20.16" y="12" width="2.4" height="2.4"/><rect x="17.76" y="14.4" width="2.4" height="2.4"/><rect x="15.36" y="16.8" width="2.4" height="2.4"/><path d="M22.56,26.4l-9.6,0l0,-7.2l2.4,0l0,4.8l9.6,0l0,4.8l-2.4,0l0,-2.4Z"/><rect x="20.16" y="28.8" width="2.4" height="4.8"/><rect x="17.76" y="33.6" width="2.4" height="2.4"/><rect x="15.36" y="36" width="2.4" height="4.8"/><path d="M17.76,45.6l0,2.4l-4.8,0l0,-7.2l2.4,0l0,4.8l2.4,0Z"/><path d="M32.16,2.4l0,-2.4l4.8,0l0,7.2l-2.4,0l0,-4.8l-2.4,0Z"/><rect x="32.16" y="7.2" width="2.4" height="4.8"/><rect x="29.76" y="12" width="2.4" height="4.8"/><path d="M29.76,16.8l0,7.2l7.2,0l0,4.8l-2.4,0l0,-2.4l-7.2,0l0,-9.6l2.4,0Z"/><path d="M15.36,19.2l2.4,0l0,-2.4l2.4,0l0,-2.4l2.4,0l0,-2.4l2.4,0l0,-2.4l2.4,0l0,-2.4l2.4,0l0,-2.4l2.4,0l0,-2.4l2.4,0l0,4.8l-2.4,0l0,4.8l-2.4,0l0,4.8l-2.4,0l0,9.6l7.2,0l0,2.4l-2.4,0l0,2.4l-2.4,0l0,2.4l-2.4,0l0,2.4l-2.4,0l0,2.4l-2.4,0l0,2.4l-2.4,0l0,2.4l-2.4,0l0,2.4l-2.4,0l0,-4.8l2.4,0l0,-4.8l2.4,0l0,-2.4l2.4,0l0,-4.8l2.4,0l0,-4.8l-9.6,0l0,-4.8Z" style="fill:#fd0;"/></svg>