<?xml version="1.0" encoding="UTF-8" standalone="no"?><!DOCTYPE svg PUBLIC "-//W3C//DTD SVG 1.1//EN" "http://www.w3.org/Graphics/SVG/1.1/DTD/svg11.dtd"><svg width="100%" height="100%" viewBox="0 0 48 48" version="1.1" xmlns="http://www.w3.org/2000/svg" xmlns:xlink="http://www.w3.org/1999/xlink" xml:space="preserve" xmlns:serif="http://www.serif.com/" style="fill-rule:evenodd;clip-rule:evenodd;stroke-linejoin:round;stroke-miterlimit:2;"><rect x="22.281" y="48.227" width="3.236" height="0.013"/><rect x="31.989" y="41.808" width="3.236" height="3.216"/><rect x="35.226" y="38.592" width="3.236" height="3.216"/><rect x="15.809" y="9.648" width="3.236" height="3.216"/><rect x="15.161" y="25.085" width="3.236" height="3.216" style="fill:#fff;"/><rect x="11.925" y="28.301" width="3.236" height="3.216" style="fill:#fff;"/><rect x="11.925" y="31.517" width="3.236" height="3.216" style="fill:#fff;"/><rect x="15.161" y="34.733" width="3.236" height="3.216" style="fill:#fff;"/><rect x="9.336" y="38.592" width="3.236" height="3.216"/><rect x="12.572" y="41.808" width="3.236" height="3.216"/><rect x="15.786" y="45.011" width="0.022" height="0.013"/><rect x="19.045" y="3.216" width="3.236" height="6.432"/><rect x="22.281" y="-0" width="3.236" height="3.216"/><path d="M15.809,45.011l10.981,0l0,0.013l5.2,0l0,3.216l-6.472,0l0,-0.013l-9.731,0l0,-3.203l0.022,0l0,-0.013Z"/><rect x="38.462" y="25.728" width="3.236" height="12.864"/><rect x="35.226" y="19.296" width="3.236" height="6.432"/><rect x="31.989" y="12.864" width="3.236" height="6.432"/><rect x="28.753" y="9.648" width="3.236" height="3.216"/><rect x="25.517" y="3.216" width="3.236" height="6.432"/><rect x="12.572" y="12.864" width="3.236" height="6.432"/><path d="M9.336,25.728l0,-6.432l3.236,0l0,6.432l-3.236,0Zm0,12.864l-3.236,0l0,-12.864l3.236,0l0,12.864Z"/><path d="M9.336,25.728l3.236,0l0,-6.432l3.236,0l0,-6.432l3.236,0l0,-3.216l3.236,0l0,-6.432l3.236,0l0,6.432l3.236,0l0,3.216l3.236,0l0,6.432l3.236,0l0,6.432l3.236,0l0,12.864l-3.236,0l0,3.216l-3.236,0l0,3.216l-5.2,0l0,-0.013l-10.981,0l0,-3.203l-3.236,0l0,-3.216l-3.236,0l0,-12.864Zm5.825,2.573l3.236,0l0,-3.216l-3.236,0l0,3.216Zm0,6.432l0,3.216l3.236,0l0,-3.216l-3.236,0Zm-3.236,0l3.236,0l0,-6.432l-3.236,0l0,6.432Z" style="fill:#00bdff;"/></svg>